<svg display="none" version="1.1" xmlns="http://www.w3.org/2000/svg" xmlns:xlink="http://www.w3.org/1999/xlink" width="272" height="32" viewBox="0 0 272 32">
  <defs>
    <symbol id="icon-github" viewBox="0 0 1024 1024">
      <path class="path1" d="M674.816 579.072c-36.762 0-66.56 41.267-66.56 92.109 0 50.893 29.798 92.16 66.56 92.16s66.56-41.267 66.56-92.16c-0.051-50.893-29.85-92.109-66.56-92.109zM906.547 339.251c7.578-18.688 7.936-124.928-32.461-226.611 0 0-92.774 10.138-233.062 106.445-29.44-8.141-79.258-12.186-129.024-12.186-49.818 0-99.584 4.096-129.075 12.186-140.237-96.307-232.96-106.445-232.96-106.445-40.397 101.683-40.090 207.923-32.461 226.611-47.514 51.61-76.544 113.562-76.544 198.195 0 367.923 305.254 373.811 382.31 373.811 17.459 0 52.173 0.051 88.781 0.102 36.608-0.051 71.322-0.102 88.678-0.102 77.107 0 382.31-5.888 382.31-373.811 0-84.634-28.979-146.586-76.493-198.195zM513.434 866.048h-2.816c-193.126 0-343.552-23.040-343.552-210.739 0-44.954 15.923-86.682 53.555-121.293 62.925-57.702 169.267-27.136 289.997-27.136 0.461 0 0.973 0 1.434-0.051 0.512 0 0.973 0.051 1.382 0.051 120.73 0 227.123-30.566 289.997 27.136 37.632 34.611 53.504 76.339 53.504 121.293 0 187.699-150.323 210.739-343.501 210.739zM349.235 579.072c-36.762 0-66.56 41.267-66.56 92.109 0 50.893 29.798 92.16 66.56 92.16s66.56-41.267 66.56-92.16c0-50.893-29.798-92.109-66.56-92.109z" />
    </symbol>
    <symbol id="icon-twitter" viewBox="0 0 1024 1024">
      <path class="path1" d="M983.040 219.802c-34.714 15.411-71.936 25.754-111.053 30.464 39.936-23.91 70.605-61.798 84.992-106.906-37.325 22.118-78.694 38.246-122.675 46.899-35.277-37.581-85.504-61.030-141.107-61.030-106.752 0-193.28 86.528-193.28 193.229 0 15.155 1.69 29.901 5.018 44.032-160.614-8.038-303.053-84.992-398.336-201.933-16.691 28.518-26.266 61.747-26.266 97.178 0 67.072 34.15 126.208 86.016 160.87-31.693-1.024-61.491-9.677-87.552-24.166 0 0.819 0 1.587 0 2.406 0 93.645 66.662 171.725 155.034 189.542-16.179 4.403-33.28 6.758-50.944 6.758-12.442 0-24.525-1.178-36.352-3.43 24.576 76.8 96 132.659 180.531 134.195-66.15 51.866-149.453 82.739-240.026 82.739-15.616 0-30.976-0.922-46.080-2.714 85.504 54.835 187.085 86.835 296.294 86.835 355.482 0 549.888-294.502 549.888-549.939 0-8.346-0.154-16.691-0.563-24.986 37.786-27.238 70.502-61.286 96.461-100.045z" />
    </symbol>
    <symbol id="icon-tumblr" viewBox="0 0 1024 1024">
      <path class="path1" d="M798.72 931.635c-39.731 18.944-75.776 32.307-107.981 39.936-32.256 7.578-67.174 11.469-104.602 11.469-42.547 0-80.128-5.478-112.896-16.333-32.666-10.906-60.518-26.419-83.661-46.438-23.091-20.224-39.117-41.574-48.026-64.256-8.96-22.682-13.414-55.552-13.414-98.611v-330.445h-102.861v-133.325c36.557-12.032 67.942-29.184 93.952-51.661 26.112-22.426 47.002-49.408 62.822-80.896 15.77-31.488 26.573-71.475 32.563-120.115h132.352v238.131h220.928v147.866h-220.928v241.613c0 54.579 2.867 89.651 8.653 105.216 5.632 15.462 16.282 27.853 31.795 37.12 20.685 12.493 44.186 18.739 70.707 18.739 47.155 0 94.003-15.514 140.595-46.49v148.48z" />
    </symbol>
    <symbol id="icon-heart" viewBox="0 0 1024 1024">
      <path class="path1" d="M880.077 212.531c-85.606-78.592-224.41-78.592-310.016 0l-58.061 53.35-58.112-53.35c-85.606-78.592-224.358-78.592-309.965 0-96.307 88.371-96.307 231.629 0 320.051l368.077 337.818 368.077-337.818c96.307-88.422 96.307-231.68 0-320.051z"></path>
    </symbol>
    <symbol id="icon-paperplane" viewBox="0 0 1024 1024">
      <path class="path1" d="M957.133 134.912c-17.562 6.195-886.835 312.474-903.936 318.515-14.541 5.12-17.818 17.664-0.512 24.525 20.531 8.243 194.355 77.875 194.355 77.875h-0.051l115.251 46.182c0 0 554.854-407.501 562.381-412.979 7.526-5.53 16.282 4.864 10.803 10.803-5.478 5.99-402.995 435.917-402.995 435.917-0.051 0-0.051 0-0.051 0l-23.142 25.805 30.669 16.486c0 0 238.080 128.154 255.027 137.318 14.848 7.987 34.202 1.331 38.502-17.152 5.069-21.811 145.664-627.814 148.787-641.229 4.096-17.562-7.475-28.262-25.088-22.067zM361.216 878.694c0 12.646 7.117 16.128 16.947 7.219 12.8-11.674 145.869-131.072 145.869-131.072l-162.816-84.275v208.128z"></path>
    </symbol>
    <symbol id="icon-cart" viewBox="0 0 1024 1024">
      <path class="path1" d="M204.8 870.4c0 56.525 45.875 102.4 102.4 102.4 56.576 0 102.4-45.875 102.4-102.4s-45.824-102.4-102.4-102.4c-56.525 0-102.4 45.875-102.4 102.4zM716.8 870.4c0 56.525 45.875 102.4 102.4 102.4 56.576 0 102.4-45.875 102.4-102.4s-45.824-102.4-102.4-102.4c-56.525 0-102.4 45.875-102.4 102.4zM386.406 628.326l566.733-161.894c10.803-3.123 19.661-14.848 19.661-26.112v-281.6h-721.92v-87.040c0-11.264-9.165-20.48-20.48-20.48h-158.72c-11.264 0-20.48 9.216-20.48 20.48v81.92h99.482l100.762 463.718 9.728 48.282v76.8c0 11.264 9.216 20.48 20.429 20.48h670.771c11.213 0 20.429-9.216 20.429-20.48v-76.8h-575.898c-58.829 0-60.058-23.040-10.496-37.274z"></path>
    </symbol>
  </defs>
</svg>
